<svg width="128" height="128" viewBox="0 0 128 128" xmlns="http://www.w3.org/2000/svg">
  <defs>
    <linearGradient id="bgGradient" x1="0%" y1="0%" x2="100%" y2="100%">
      <stop offset="0%" style="stop-color:#3B82F6;stop-opacity:1" />
      <stop offset="50%" style="stop-color:#2563EB;stop-opacity:1" />
      <stop offset="100%" style="stop-color:#1D4ED8;stop-opacity:1" />
    </linearGradient>
    <linearGradient id="textGradient" x1="0%" y1="0%" x2="100%" y2="100%">
      <stop offset="0%" style="stop-color:#1E40AF;stop-opacity:1" />
      <stop offset="100%" style="stop-color:#1D4ED8;stop-opacity:1" />
    </linearGradient>
    <filter id="shadow" x="-20%" y="-20%" width="140%" height="140%">
      <feDropShadow dx="2" dy="4" stdDeviation="3" flood-opacity="0.3"/>
    </filter>
  </defs>
  
  <!-- Background rounded rectangle -->
  <rect x="8" y="8" width="112" height="112" rx="24" ry="24" fill="url(#bgGradient)" filter="url(#shadow)"/>
  
  <!-- Y Letter -->
  <path d="M32 35 L45 35 L55 55 L65 35 L78 35 L62 65 L62 85 L48 85 L48 65 Z" fill="white" opacity="0.95"/>
  
  <!-- Chart bars representing business growth -->
  <rect x="85" y="70" width="6" height="15" rx="2" fill="white" opacity="0.9"/>
  <rect x="94" y="60" width="6" height="25" rx="2" fill="white" opacity="0.9"/>
  <rect x="103" y="50" width="6" height="35" rx="2" fill="white" opacity="0.9"/>
  
  <!-- Subtle geometric accent -->
  <circle cx="90" cy="45" r="3" fill="white" opacity="0.7"/>
  <circle cx="99" cy="40" r="2" fill="white" opacity="0.5"/>
  
  <!-- Bottom text -->
  <text x="64" y="105" text-anchor="middle" font-family="Arial, sans-serif" font-size="12" font-weight="600" fill="white" opacity="0.8">Gestion</text>
</svg>